<?xml version="1.0" standalone="no"?>
<!DOCTYPE svg PUBLIC "-//W3C//DTD SVG 1.1//EN" "http://www.w3.org/Graphics/SVG/1.1/DTD/svg11.dtd" >
<!--
2013-9-30: Created.
-->
<svg>
<metadata>
Created by iconfont
</metadata>
<defs>

<font id="iconfont" horiz-adv-x="1024" >
  <font-face
    font-family="iconfont"
    font-weight="500"
    font-stretch="normal"
    units-per-em="1024"
    ascent="896"
    descent="-128"
  />
    <missing-glyph />
    
    <glyph glyph-name="weixin1" unicode="&#59064;" d="M320.417684 587.776c-19.442526 0-39.073684-13.056-39.073684-32.848842 0-19.712 19.631158-32.929684 39.073684-32.929684 19.469474 0 32.525474 13.217684 32.525474 32.929684C352.943158 574.72 339.900632 587.776 320.417684 587.776zM502.177684 521.984c19.631158 0 32.606316 13.231158 32.606316 32.929684 0 19.806316-12.975158 32.848842-32.606316 32.848842-19.442526 0-39.006316-13.056-39.006316-32.848842C463.184842 535.215158 482.735158 521.984 502.177684 521.984zM512 896C229.214316 896 0 666.799158 0 384c0-282.785684 229.214316-512 512-512 282.799158 0 512.013474 229.214316 512.013474 512C1024.013474 666.799158 794.799158 896 512 896zM404.843789 251.917474c-32.444632 0-58.556632 6.642526-90.974316 13.217684l-90.799158-46.187789 25.936842 79.211789c-65.010526 46.066526-103.922526 105.364211-103.922526 177.650526 0 125.278316 116.992 223.905684 259.759158 223.905684 127.730526 0 239.602526-78.834526 262.036211-184.818526-8.178526 0.929684-16.559158 1.536-25.007158 1.536-123.392 0-220.820211-93.372632-220.820211-208.289684 0-19.213474 2.977684-37.645474 8.003368-55.228632C421.052632 252.254316 413.022316 251.917474 404.843789 251.917474zM787.968 159.757474l19.536842-65.886316L736.282947 133.389474c-26.044632-6.575158-52.048842-13.150316-77.918316-13.150316-123.567158 0-221.008842 85.598316-221.008842 190.976 0 105.283368 97.441684 191.056842 221.008842 191.056842 116.641684 0 220.577684-85.76 220.577684-191.056842C878.928842 251.917474 840.124632 199.343158 787.968 159.757474zM729.532632 396.894316c-12.8 0-25.694316-13.231158-25.694316-26.381474 0-13.204211 12.894316-26.273684 25.694316-26.273684 19.536842 0 32.592842 13.069474 32.592842 26.273684C762.112 383.663158 749.069474 396.894316 729.532632 396.894316zM586.657684 396.894316c-12.867368 0-25.923368-13.231158-25.923368-26.381474 0-13.204211 13.056-26.273684 25.923368-26.273684 19.712 0 32.525474 13.069474 32.525474 26.273684C619.183158 383.663158 606.369684 396.894316 586.657684 396.894316z"  horiz-adv-x="1025" />

    
    <glyph glyph-name="zhifubao" unicode="&#58981;" d="M230.404452 319.463513C218.3168 309.735513 205.360974 295.533078 201.598887 277.479513 196.478887 252.81447 200.530365 221.938643 224.327235 197.718817 253.155061 168.35673 296.964452 160.320557 315.886191 158.940383 367.286539 155.222817 422.070539 180.711513 463.364452 209.784209 479.548104 221.204035 507.262887 244.13273 533.753322 279.505252 474.383583 310.15847 400.277148 344.061774 321.050713 340.744904 280.580452 339.053078 251.5968 330.66073 230.404452 319.463513ZM983.262609 183.919304C1009.463652 245.426087 1024 313.032348 1024 384 1024 666.312348 794.334609 896 512 896 229.665391 896 0 666.312348 0 384 0 101.665391 229.665391-128 512-128 682.384696-128 833.491478-44.27687 926.630957 84.123826 838.633739 127.866435 693.604174 199.858087 604.271304 243.422609 561.641739 194.82713 498.621217 146.120348 427.430957 124.928 382.70887 111.638261 342.394435 106.562783 300.232348 115.177739 258.493217 123.725913 227.750957 143.270957 209.830957 162.860522 200.704 172.855652 190.21913 185.566609 182.628174 200.681739 183.340522 198.767304 183.830261 197.632 183.830261 197.632 183.830261 197.632 179.46713 205.156174 176.128 217.132522 174.413913 222.920348 173.256348 228.953043 172.78887 235.27513 172.432696 239.415652 172.343652 243.778783 172.588522 248.32 172.210087 256.022261 172.521739 264.102957 174.258087 272.384 178.44313 292.61913 187.080348 316.193391 209.430261 338.075826 258.493217 386.114783 324.207304 388.697043 358.244174 388.496696 408.665043 388.207304 496.283826 366.146783 570.056348 340.057043 590.491826 383.577043 603.603478 430.124522 612.062609 461.156174L305.307826 461.156174 305.307826 494.32487 462.825739 494.32487 462.825739 560.662261 272.13913 560.662261 272.13913 593.830957 462.825739 593.830957 462.825739 660.146087C462.825739 669.250783 464.62887 676.730435 479.410087 676.730435L554.028522 676.730435 554.028522 593.830957 761.321739 593.830957 761.321739 560.662261 554.028522 560.662261 554.028522 494.32487 719.849739 494.32487C719.849739 494.32487 703.198609 401.497043 651.130435 310.00487 766.686609 268.733217 929.257739 205.156174 983.262609 183.919304Z"  horiz-adv-x="1024" />

    
    <glyph glyph-name="buoumaotubiao20" unicode="&#58898;" d="M512.023273 849.454545c256.651636 0 465.454545-208.802909 465.454545-465.454545s-208.802909-465.454545-465.454545-465.454545-465.454545 208.802909-465.454545 465.454545S255.371636 849.454545 512.023273 849.454545M512.023273 896c-282.763636 0-512-229.236364-512-512s229.236364-512 512-512 512 229.236364 512 512S794.810182 896 512.023273 896L512.023273 896zM725.76 146.967273c-5.957818 0-11.915636 2.280727-16.453818 6.818909l-427.450182 427.52c-9.099636 9.099636-9.099636 23.831273 0 32.907636 9.099636 9.099636 23.808 9.099636 32.907636 0l427.450182-427.52c9.099636-9.099636 9.099636-23.831273 0-32.907636C737.675636 149.248 731.717818 146.967273 725.76 146.967273zM298.263273 146.990545c-5.957818 0-11.915636 2.280727-16.453818 6.818909-9.099636 9.099636-9.099636 23.831273 0 32.907636L709.352727 614.190545c9.099636 9.099636 23.808 9.099636 32.907636 0s9.099636-23.831273 0-32.907636L314.717091 153.809455C310.178909 149.271273 304.221091 146.990545 298.263273 146.990545z"  horiz-adv-x="1026" />

    
    <glyph glyph-name="share" unicode="&#58901;" d="M768.704 192.384c-35.648 0-67.904-14.72-91.136-38.304l-309.152 171.712c9.056 17.568 14.688 37.184 14.688 58.272 0 12.576-2.368 24.48-5.76 35.936l304.608 189.152c22.688-20.416 52.384-33.184 85.216-33.184 70.592 0 128 57.408 128 128s-57.408 128-128 128-128-57.408-128-128c0-14.56 2.976-28.352 7.456-41.408l-301.824-187.392c-23.136 22.784-54.784 36.928-89.728 36.928-70.592 0-128-57.408-128-128 0-70.592 57.408-128 128-128 25.664 0 49.504 7.744 69.568 20.8l321.216-178.4c-3.040-10.944-5.184-22.208-5.184-34.080 0-70.592 57.408-128 128-128s128 57.408 128 128-57.344 127.968-127.968 127.968zM767.2 767.968c35.296 0 64-28.704 64-64s-28.704-64-64-64-64 28.704-64 64 28.704 64 64 64zM191.136 384.064c0 35.296 28.704 64 64 64s64-28.704 64-64c0-35.296-28.704-64-64-64s-64 28.704-64 64zM768.704 0.384c-35.296 0-64 28.704-64 64s28.704 64 64 64 64-28.704 64-64-28.704-64-64-64z"  horiz-adv-x="1024" />

    
    <glyph glyph-name="add_icon" unicode="&#59012;" d="M512 896C795.554909 896 1024 664.948364 1024 384 1024 100.445091 795.554909-128 512-128A512.651636 512.651636 0 0 0 0 384C0 667.554909 228.445091 896 512 896zM465.454545 430.545455H232.727273a46.545455 46.545455 0 0 1 0-93.09091H465.454545v-232.727272a46.545455 46.545455 0 0 1 93.09091 0V337.454545h232.727272a46.545455 46.545455 0 0 1 0 93.09091H558.545455V663.272727a46.545455 46.545455 0 0 1-93.09091 0V430.545455z"  horiz-adv-x="1024" />

    
    <glyph glyph-name="angle" unicode="&#59013;" d="M448.073143 0L895.853714 896H0z"  horiz-adv-x="1024" />

    
    <glyph glyph-name="angel" unicode="&#59014;" d="M448.073143 896l447.926857-896H0z"  horiz-adv-x="1024" />

    
    <glyph glyph-name="back" unicode="&#59015;" d="M27.045647 350.509176a38.249412 38.249412 0 0 0 0 54.091295L477.665882 855.280941a38.249412 38.249412 0 1 0 54.091294-54.091294L146.371765 415.804235h1077.308235a38.249412 38.249412 0 0 0 0-76.498823H146.371765L531.877647-46.08a38.249412 38.249412 0 1 0-54.091294-54.031059L27.045647 350.509176z"  horiz-adv-x="1264" />

    
    <glyph glyph-name="guanbi" unicode="&#59016;" d="M512-128C229.233116-128 0 101.233116 0 384S229.233116 896 512 896s512-229.233116 512-512-229.233116-512-512-512z m29.719814 515.965023l122.082233 122.082233a23.813953 23.813953 0 0 1-33.684838 33.67293L508.034977 421.637953 385.952744 543.720186a23.813953 23.813953 0 0 1-33.67293-33.67293l122.082233-122.082233L352.279814 265.882791a23.813953 23.813953 0 0 1 33.67293-33.684838l122.082233 122.082233L630.117209 232.197953a23.813953 23.813953 0 1 1 33.684838 33.684838L541.719814 387.965023z"  horiz-adv-x="1024" />

    
    <glyph glyph-name="close" unicode="&#59017;" d="M521.088 465.408L883.2 827.52a64 64 0 1 0 90.496-90.496L611.584 374.912l362.048-362.048a64 64 0 0 0-90.496-90.496L521.088 284.416l-362.048-362.048A64 64 0 0 0 68.544 12.8l362.048 362.048L68.48 736.96a64 64 0 1 0 90.496 90.496l362.048-362.048z"  horiz-adv-x="1024" />

    
    <glyph glyph-name="back1" unicode="&#59018;" d="M1250.725647 350.509176a38.249412 38.249412 0 0 1 0 54.091295L800.045176 855.280941a38.249412 38.249412 0 1 1-54.031058-54.091294l385.385411-385.385412H54.091294a38.249412 38.249412 0 0 1 0-76.498823h1077.308235l-385.385411-385.385412a38.249412 38.249412 0 1 1 54.031058-54.031059l450.680471 450.620235z"  horiz-adv-x="1264" />

    
    <glyph glyph-name="jinggao" unicode="&#59020;" d="M512-128C229.233116-128 0 101.233116 0 384S229.233116 896 512 896s512-229.233116 512-512-229.233116-512-512-512z m-23.813953 714.418605v-285.767442a23.813953 23.813953 0 0 1 47.627906 0V586.418605a23.813953 23.813953 0 0 1-47.627906 0z m23.813953-428.651163a35.72093 35.72093 0 1 1 0 71.44186 35.72093 35.72093 0 0 1 0-71.44186z"  horiz-adv-x="1024" />

    
    <glyph glyph-name="icon2" unicode="&#59024;" d="M1115.53792 739.0208a24.6272 24.6272 0 0 1-13.696 15.104L782.30272 892.9024A24.4992 24.4992 0 0 1 751.63392 883.2l-110.1824-177.8688L337.42592 670.1312l-16.9472 39.8592a24.576 24.576 0 0 1-12.032 12.4928L35.19232 853.2736a24.5248 24.5248 0 0 1-27.5712-4.5056 24.448 24.448 0 0 1-5.632-27.3664l88.576-207.488v-529.2032c0-8.32 4.224-16.1024 11.264-20.608l289.664-187.7504c0.4352-0.256 0.9728-0.1536 1.408-0.4352 3.6864-2.0736 7.68-3.4816 11.9552-3.4816 0.9728 0 1.8688 0 2.8416 0.1024l540.928 62.6176a24.6528 24.6528 0 0 1 21.8112 24.3968V487.5264l142.592 231.1936a24.4992 24.4992 0 0 1 2.5088 20.3008zM631.49312 654.7456v-172.5952l-203.6736-23.6032-70.2208 164.48 273.92 31.7184z m49.152-17.664l195.5328-126.592-195.5328-22.656v149.248zM278.95552 682.2144l82.688-193.7152-226.8928 146.9696L72.74752 780.8l206.208-98.5856z m-139.264-108.416l240.5888-155.904v-475.7248l-240.5888 155.904V573.7984z m289.6896-649.2672V409.3184l491.904 56.96v-484.8384l-491.904-56.9088z m508.6976 604.288L689.68192 689.8176l92.544 149.504 274.176-118.9888-118.272-191.488z"  horiz-adv-x="1126" />

    
    <glyph glyph-name="last_page" unicode="&#59025;" d="M512-128C229.226146-128 0 101.226146 0 384S229.226146 896 512 896 1024 666.773854 1024 384 794.773854-128 512-128z m256.349659 498.113561a15.859512 15.859512 0 0 1 0 22.428098l-186.867513 186.867512a15.859512 15.859512 0 1 1-22.403122-22.428098l159.793952-159.793951H272.184195a15.859512 15.859512 0 0 1 0-31.719024h446.688781l-159.793952-159.793952a15.859512 15.859512 0 1 1 22.403122-22.403122l186.867513 186.842537z"  horiz-adv-x="1024" />

    
    <glyph glyph-name="menu" unicode="&#59026;" d="M48.761905 896h1219.047619a48.761905 48.761905 0 0 0 48.761905-48.761905v-24.380952a48.761905 48.761905 0 0 0-48.761905-48.761905H48.761905a48.761905 48.761905 0 0 0-48.761905 48.761905V847.238095a48.761905 48.761905 0 0 0 48.761905 48.761905z m0-438.857143h828.952381a48.761905 48.761905 0 0 0 48.761904-48.761905v-24.380952a48.761905 48.761905 0 0 0-48.761904-48.761905H48.761905a48.761905 48.761905 0 0 0-48.761905 48.761905V408.380952a48.761905 48.761905 0 0 0 48.761905 48.761905z m0-438.857143h682.666666a48.761905 48.761905 0 0 0 48.761905-48.761904v-24.380953a48.761905 48.761905 0 0 0-48.761905-48.761905H48.761905a48.761905 48.761905 0 0 0-48.761905 48.761905V-30.47619a48.761905 48.761905 0 0 0 48.761905 48.761904z"  horiz-adv-x="1316" />

    
    <glyph glyph-name="more" unicode="&#59027;" d="M382.171429 378.806857l400.822857-400.822857a36.571429 36.571429 0 0 0 0-51.748571l-38.765715-38.765715a36.571429 36.571429 0 0 0-51.748571 0L265.801143 314.148571l-38.765714 38.765715a36.571429 36.571429 0 0 0 0 51.748571L692.443429 870.144a36.571429 36.571429 0 0 0 51.712 0l38.765714-38.765714a36.571429 36.571429 0 0 0 0-51.748572L382.171429 378.806857z"  horiz-adv-x="1024" />

    
    <glyph glyph-name="more1" unicode="&#59028;" d="M633.965714 378.806857L233.142857-22.016a36.571429 36.571429 0 0 1 0-51.748571l38.765714-38.765715a36.571429 36.571429 0 0 1 51.712 0L750.336 314.148571l38.765714 38.765715a36.571429 36.571429 0 0 1 0 51.748571L323.657143 870.144a36.571429 36.571429 0 0 1-51.712 0l-38.765714-38.765714a36.571429 36.571429 0 0 1 0-51.748572l400.822857-400.822857z"  horiz-adv-x="1024" />

    
    <glyph glyph-name="next_page" unicode="&#59029;" d="M512-128C229.226146-128 0 101.226146 0 384S229.226146 896 512 896 1024 666.773854 1024 384 794.773854-128 512-128zM260.970146 370.113561l186.867513-186.842537a15.859512 15.859512 0 1 1 22.428097 22.403122L310.446829 365.518049h446.688781a15.859512 15.859512 0 1 1 0 31.719024H310.446829l159.818927 159.768976a15.859512 15.859512 0 0 1-22.428097 22.428097l-186.867513-186.867512a15.859512 15.859512 0 0 1 0-22.428097z"  horiz-adv-x="1024" />

    
    <glyph glyph-name="tips" unicode="&#59033;" d="M187.744 739.456a34.112 34.112 0 1 1-48.256-48.256l48.256-48.256a34.112 34.112 0 1 1 48.256 48.256l-48.256 48.256z m648.576 0l-48.32-48.256a34.112 34.112 0 0 1 48.32-48.256l48.256 48.256a34.112 34.112 0 1 1-48.256 48.256zM102.432 469.376H34.144a34.112 34.112 0 1 1 0-68.288H102.432a34.112 34.112 0 0 1 0 68.224z m887.424 0H921.632a34.112 34.112 0 1 1 0-68.288h68.224a34.112 34.112 0 0 1 0 68.224z m-512 392.512V793.6a34.112 34.112 0 1 1 68.288 0V861.888a34.112 34.112 0 0 1-68.224 0zM273.12 384a238.912 238.912 0 1 0 477.888 0 238.912 238.912 0 0 0-477.824 0zM204.832 384a307.2 307.2 0 1 1 614.4 0 307.2 307.2 0 0 1-614.4 0z m238.912-477.888c0-18.816 15.296-34.112 34.176-34.112h68.224a34.112 34.112 0 0 1 0 68.288H477.92a34.112 34.112 0 0 1-34.176-34.176z m-68.224 102.4c0-18.816 15.232-34.112 34.112-34.112h204.8a34.112 34.112 0 0 1 0 68.288H409.632a34.112 34.112 0 0 1-34.112-34.176z"  horiz-adv-x="1024" />

    
    <glyph glyph-name="tubiao1" unicode="&#59034;" d="M752.758154-127.803077H224.216615A165.179077 165.179077 0 0 0 59.076923 37.336615V698.013538A165.179077 165.179077 0 0 0 224.256 863.153231h466.392615a33.043692 33.043692 0 1 0 0-66.048H224.256a99.091692 99.091692 0 0 1-99.131077-99.091693v-660.676923a99.091692 99.091692 0 0 1 99.131077-99.091692h528.502154a99.091692 99.091692 0 0 1 99.091692 99.091692V648.467692a33.043692 33.043692 0 0 0 66.048 0v-611.131077a165.179077 165.179077 0 0 0-165.139692-165.139692zM521.531077 499.790769H323.347692a33.043692 33.043692 0 1 0 0 66.087385h198.183385a33.043692 33.043692 0 1 0 0-66.087385z m132.135385-198.183384H323.347692a33.043692 33.043692 0 1 0 0 66.087384h330.31877a33.043692 33.043692 0 1 0 0-66.087384z m0-198.183385H323.347692a33.043692 33.043692 0 1 0 0 66.048h330.31877a33.043692 33.043692 0 1 0 0-66.048z m-7.955693 454.498462a33.043692 33.043692 0 0 0-23.118769 56.162461L894.818462 886.272a33.161846 33.161846 0 0 0 46.907076-46.867692l-272.81723-273.526154a33.043692 33.043692 0 0 0-23.158154-7.916308z"  horiz-adv-x="1024" />

    
    <glyph glyph-name="tubiao3" unicode="&#59036;" d="M949.4528 639.044267L534.016 855.688533a46.114133 46.114133 0 0 1-42.427733 0.136534L76.288 642.491733A46.114133 46.114133 0 0 1 51.2 601.4976v-441.1392c0-17.5104 9.898667-33.518933 25.6-41.301333l415.3344-207.086934c12.970667-6.485333 28.194133-6.485333 41.1648 0l415.402667 207.0528c15.633067 7.816533 25.531733 23.790933 25.531733 41.301334V598.084267c0 17.237333-9.557333 32.9728-24.7808 40.96z m-440.2176-208.554667l-155.921067 76.6976L706.525867 696.32l152.302933-79.428267L509.269333 430.421333z m3.3792 366.967467l127.863467-66.696534-355.089067-190.122666-139.332267 68.539733 366.557867 188.279467zM112.7424 556.987733l147.319467-72.4992v-161.792a30.754133 30.754133 0 1 1 61.5424 0v131.4816l160.3584-78.848v-389.597866L112.7424 169.813333V556.987733z m430.762667-571.255466V379.016533l369.186133 196.846934v-406.050134l-369.186133-184.081066z"  horiz-adv-x="1024" />

    
    <glyph glyph-name="wancheng" unicode="&#59038;" d="M512-128C229.233116-128 0 101.233116 0 384S229.233116 896 512 896s512-229.233116 512-512-229.233116-512-512-512z m-30.541395 412.660093l-109.448931 109.44893a23.813953 23.813953 0 1 1-33.684837-33.67293l117.87907-117.87907c1.452651-1.452651 3.048186-2.67907 4.738977-3.679256a23.861581 23.861581 0 0 1 37.352186-4.738976L742.459535 478.303256a23.813953 23.813953 0 1 1-33.67293 33.684837L481.458605 284.660093z"  horiz-adv-x="1024" />

    
    <glyph glyph-name="weixin" unicode="&#59039;" d="M850.304 586.56c14.336 0 28.608-1.024 42.688-2.56-38.4 178.816-229.568 311.68-447.872 311.68C201.088 895.744 1.216 729.472 1.216 518.272c0-121.92 66.496-222.016 177.6-299.712l-44.352-133.504 155.136 77.824c55.552-11.008 100.096-22.336 155.52-22.336 13.952 0 27.712 0.704 41.472 1.792a330.56 330.56 0 0 0-13.76 92.992c0 193.92 166.592 351.36 377.472 351.36zM608.448 715.968a68.608 68.608 0 1 0 0-137.28 68.608 68.608 0 0 0 0 137.28zM297.856 577.28a68.608 68.608 0 1 0 0 137.216 68.608 68.608 0 0 0 0-137.216z m954.432-338.176c0 177.472-177.6 322.176-377.024 322.176-211.2 0-377.6-144.64-377.6-322.176 0-177.792 166.4-322.112 377.6-322.112 44.16 0 88.768 11.136 133.12 22.272l121.792-66.688-33.344 110.912c89.088 66.88 155.52 155.52 155.52 255.616z m-493.056 49.792a48.896 48.896 0 1 0 0 97.728 48.896 48.896 0 0 0 0-97.728z m244.032-2.816a48.896 48.896 0 1 0 0 97.792 48.896 48.896 0 0 0 0-97.792z"  horiz-adv-x="1280" />

    
    <glyph glyph-name="xinlang" unicode="&#59040;" d="M1157.188267 795.784533C1038.404267 909.858133 863.982933 893.883733 863.982933 893.883733a39.867733 39.867733 0 0 1-38.775466-39.799466v-19.2512c0-21.572267 17.271467-38.024533 39.3216-37.6832 0 0 167.389867 17.749333 238.660266-86.152534s40.482133-234.2912 40.482134-234.2912a32.426667 32.426667 0 0 1 33.314133-38.570666h16.5888a45.056 45.056 0 0 1 44.032 38.7072s38.365867 204.8-80.418133 318.941866zM1019.016533 484.215467h23.620267c14.336 0 28.2624 11.264 30.583467 25.8048 0 0 27.784533 108.066133-37.000534 167.253333-64.785067 59.255467-149.504 37.6832-149.504 37.6832a31.3344 31.3344 0 0 1-25.668266-30.037333v-10.103467c0-14.336 11.4688-25.1904 26.350933-24.712533 0 0 70.997333 9.6256 105.608533-32.085334 34.6112-41.642667 7.509333-109.090133 7.509334-109.090133-4.096-13.653333 4.369067-24.712533 18.500266-24.712533zM465.5104 377.6512c-116.736-22.664533-195.652267-121.105067-176.469333-219.818667 19.114667-98.7136 129.297067-160.426667 245.9648-137.693866 116.667733 22.664533 195.652267 121.105067 176.469333 219.818666-19.182933 98.7136-129.297067 160.426667-245.9648 137.693867z m-9.557333-259.6864c-35.908267-16.725333-75.3664-8.123733-88.064 19.2512-12.834133 27.306667 5.9392 63.0784 41.847466 79.803733s75.3664 8.192 88.064-19.182933c12.765867-27.306667-5.9392-63.0784-41.847466-79.872z m82.3296 83.080533a36.181333 36.181333 0 0 0-35.908267 36.4544 36.181333 36.181333 0 0 0 35.908267 36.4544 36.181333 36.181333 0 0 0 35.84-36.4544 36.181333 36.181333 0 0 0-35.84-36.4544zM900.164267 418.4064c0 10.922667 104.311467 109.704533 0 171.144533-104.379733 61.44-295.253333-31.9488-289.450667-21.981866 82.056533 143.428267-35.293867 188.689067-95.095467 188.689066-142.5408 0-515.2768-317.576533-515.2768-518.7584s248.832-364.270933 555.8272-364.270933 553.506133 163.157333 553.506134 364.270933c0 169.984-209.578667 169.984-209.578667 180.906667z m-328.977067-433.5616c-196.130133-27.579733-369.8688 55.022933-388.096 184.5248-18.158933 129.501867 126.088533 256.8192 322.218667 284.398933 196.130133 27.511467 369.8688-55.0912 388.096-184.593066 18.2272-129.4336-126.020267-256.750933-322.218667-284.330667z"  horiz-adv-x="1297" />

    
    <glyph glyph-name="qq1" unicode="&#59041;" d="M966.728168 272.675713a511.12119 511.12119 0 0 1-32.182788 59.684443 372.954629 372.954629 0 0 1-28.525653 39.27763c-17.115392 20.333671-33.86507 33.060501-48.49361 39.204488 2.194281 19.017102 3.437707 40.959912 3.437707 62.244438 0 49.005609-6.582843 94.134655-17.261678 127.195156A317.146749 317.146749 0 0 1 526.774825 895.632092a318.317032 318.317032 0 0 1-317.073606-295.496509c-10.898262-33.133643-17.554248-77.531262-17.554248-127.122014 0-22.527952 1.316569-42.276481 3.803421-62.31758-14.335969-8.045697-30.500506-25.014804-46.738186-45.348475-10.459406-13.165686-20.991955-28.525653-31.012505-45.567902a504.392062 504.392062 0 0 1-24.575947-47.103899c-42.495909-92.379231-51.419318-178.980188-19.894815-193.535585 19.967957-9.21598 51.492461 12.946258 82.651252 53.979312a409.087123 409.087123 0 0 1 101.522068-134.582568c-49.371323-16.603393-82.139253-45.714188-82.139253-79.140402 0-51.492461 78.701546-45.78733 175.908195-45.787331 80.603256 0 148.479682-3.876563 169.325351 24.137092H526.62854l8.191983 0.073142c20.84567-28.086797 88.795238-24.137091 169.325351-24.137091 97.133506 0 175.981337-5.631988 175.981337 45.860473 0 33.645642-33.645642 63.195293-84.114105 79.652401a408.428839 408.428839 0 0 1 103.423778 139.848843c32.548502-44.69019 66.121001-69.33928 87.039814-59.757586 31.670789 14.262827 22.74738 100.936927-19.74853 193.3893z"  horiz-adv-x="1024" />

    
    <glyph glyph-name="back2" unicode="&#59042;" d="M27.045647 350.509176a38.249412 38.249412 0 0 0 0 54.091295L477.665882 855.280941a38.249412 38.249412 0 1 0 54.091294-54.091294L146.371765 415.804235h1077.308235a38.249412 38.249412 0 0 0 0-76.498823H146.371765L531.877647-46.08a38.249412 38.249412 0 1 0-54.091294-54.031059L27.045647 350.509176z"  horiz-adv-x="1264" />

    
    <glyph glyph-name="add" unicode="&#59030;" d="M1032.432941-127.397647h-31.924706v24.094118h19.877647v-1.807059h12.047059v-22.287059z m-62.042353 0h-30.117647v24.094118h30.117647v-24.094118z m-60.235294 0h-30.117647v24.094118h30.117647v-24.094118z m-60.235294 0h-30.117647v24.094118h30.117647v-24.094118z m-60.235294 0h-30.117647v24.094118h30.117647v-24.094118z m-60.235294 0h-30.117647v24.094118h30.117647v-24.094118z m-60.235294 0h-30.117647v24.094118h30.117647v-24.094118z m-60.235294 0h-30.117648v24.094118h30.117648v-24.094118z m-60.235295 0h-30.117647v24.094118h30.117647v-24.094118z m-60.235294 0h-30.117647v24.094118h30.117647v-24.094118z m-60.235294 0h-30.117647v24.094118h30.117647v-24.094118z m-60.235294 0h-30.117647v24.094118h30.117647v-24.094118z m-60.235294 0h-30.117647v24.094118h30.117647v-24.094118z m-60.235294 0h-30.117647v24.094118h30.117647v-24.094118z m-60.235294 0h-30.117647v24.094118h30.117647v-24.094118z m-60.235294 0h-30.117647v24.094118h30.117647v-24.094118z m-60.235295 0h-30.117647v24.094118h30.117647v-24.094118z m-38.550588 22.287059h-24.094117v30.117647h24.094117v-30.117647z m1004.122353 30.117647h-24.094117v30.117647h24.094117v-30.117647z m-1004.122353 30.117647h-24.094117v30.117647h24.094117v-30.117647z m1004.122353 30.117647h-24.094117v30.117647h24.094117v-30.117647z m-1004.122353 30.117647h-24.094117v30.117647h24.094117v-30.117647z m1004.122353 30.117647h-24.094117v30.117647h24.094117v-30.117647z m-1004.122353 30.117647h-24.094117v30.117647h24.094117v-30.117647z m1004.122353 30.117647h-24.094117v30.117647h24.094117v-30.117647z m-1004.122353 30.117647h-24.094117v30.117647h24.094117v-30.117647z m1004.122353 30.117647h-24.094117v30.117647h24.094117v-30.117647z m-1004.122353 30.117647h-24.094117v30.117647h24.094117v-30.117647z m1004.122353 30.117647h-24.094117v30.117647h24.094117v-30.117647z m-1004.122353 30.117647h-24.094117v30.117648h24.094117v-30.117648z m1004.122353 30.117648h-24.094117v30.117647h24.094117v-30.117647z m-1004.122353 30.117647h-24.094117v30.117647h24.094117v-30.117647z m1004.122353 30.117647h-24.094117v30.117647h24.094117v-30.117647z m-1004.122353 30.117647h-24.094117v30.117647h24.094117v-30.117647z m1004.122353 30.117647h-24.094117v30.117647h24.094117v-30.117647z m-1004.122353 30.117647h-24.094117v30.117647h24.094117v-30.117647z m1004.122353 30.117647h-24.094117v30.117647h24.094117v-30.117647z m-1004.122353 30.117647h-24.094117v30.117647h24.094117v-30.117647z m1004.122353 30.117647h-24.094117v30.117647h24.094117v-30.117647z m-1004.122353 30.117647h-24.094117v30.117647h24.094117v-30.117647z m1004.122353 30.117647h-24.094117v30.117647h24.094117v-30.117647z m-1004.122353 30.117647h-24.094117v30.117647h24.094117v-30.117647z m1004.122353 30.117647h-24.094117v30.117647h24.094117v-30.117647z m-1004.122353 30.117647h-24.094117v30.117647h24.094117v-30.117647z m1004.122353 30.117647h-24.094117v30.117647h24.094117v-30.117647z m-1004.122353 30.117647h-24.094117v30.117647h24.094117v-30.117647z m1004.122353 30.117647h-24.094117v30.117648h24.094117v-30.117648z m-1004.122353 30.117648h-24.094117v30.117647h24.094117v-30.117647z m1004.122353 30.117647h-24.094117v30.117647h24.094117v-30.117647zM28.310588 858.654118h-24.094117V890.578824h42.164705v-24.094118h-18.070588v-7.830588z m981.835294 7.830588h-30.117647v24.094118h30.117647v-24.094118z m-60.235294 0h-30.117647v24.094118h30.117647v-24.094118z m-60.235294 0h-30.117647v24.094118h30.117647v-24.094118z m-60.235294 0h-30.117647v24.094118h30.117647v-24.094118z m-60.235294 0h-30.117647v24.094118h30.117647v-24.094118z m-60.235294 0h-30.117647v24.094118h30.117647v-24.094118z m-60.235294 0h-30.117647v24.094118h30.117647v-24.094118z m-60.235294 0h-30.117648v24.094118h30.117648v-24.094118z m-60.235295 0h-30.117647v24.094118h30.117647v-24.094118z m-60.235294 0h-30.117647v24.094118h30.117647v-24.094118z m-60.235294 0h-30.117647v24.094118h30.117647v-24.094118z m-60.235294 0h-30.117647v24.094118h30.117647v-24.094118z m-60.235294 0h-30.117647v24.094118h30.117647v-24.094118z m-60.235294 0h-30.117647v24.094118h30.117647v-24.094118z m-60.235294 0h-30.117647v24.094118h30.117647v-24.094118z m-60.235294 0h-30.117647v24.094118h30.117647v-24.094118zM503.567059 396.649412v126.494117c0 8.432941 6.625882 15.058824 15.058823 15.058824s15.058824-6.625882 15.058824-15.058824v-126.494117h126.494118c8.432941 0 15.058824-6.625882 15.058823-15.058824s-6.625882-15.058824-15.058823-15.058823h-126.494118v-126.494118c0-8.432941-6.625882-15.058824-15.058824-15.058823s-15.058824 6.625882-15.058823 15.058823v126.494118h-126.494118c-8.432941 0-15.058824 6.625882-15.058823 15.058823s6.625882 15.058824 15.058823 15.058824h126.494118z"  horiz-adv-x="1036" />

    
    <glyph glyph-name="icon3" unicode="&#59043;" d="M926.851282 58.420513H157.538462c-89.271795 0-157.538462 68.266667-157.538462 157.538461V738.461538c0 89.271795 68.266667 157.538462 157.538462 157.538462h690.543589c44.635897 0 78.769231-34.133333 78.769231-78.769231v-758.810256zM157.538462 843.487179C99.774359 843.487179 52.512821 796.225641 52.512821 738.461538v-522.502564c0-57.764103 47.261538-105.025641 105.025641-105.025641h716.8V817.230769c0 15.753846-10.502564 26.25641-26.256411 26.25641H157.538462zM1304.94359 58.420513H874.338462V754.215385h238.933333c26.25641 0 49.887179-7.876923 68.266667-23.63077l181.16923-149.661538c28.882051-26.25641 47.261538-63.015385 47.261539-102.4v-315.076923c0-57.764103-47.261538-105.025641-105.025641-105.025641z m-378.092308 52.51282h378.092308c28.882051 0 52.512821 23.630769 52.51282 52.512821v315.076923c0 23.630769-10.502564 44.635897-28.882051 63.015385l-181.169231 149.661538c-10.502564 7.876923-21.005128 13.128205-36.758974 13.128205h-186.420513v-593.394872zM1386.338462 344.615385H1118.523077c-76.14359 0-141.784615 65.641026-141.784615 141.784615 0 78.769231 63.015385 141.784615 141.784615 141.784615h175.917949v-52.51282h-175.917949c-49.887179 0-89.271795-39.384615-89.271795-89.271795 0-47.261538 42.010256-89.271795 89.271795-89.271795h270.441026v-52.51282zM451.610256 63.671795m-152.287179 0a152.287179 152.287179 0 1 1 304.574359 0 152.287179 152.287179 0 1 1-304.574359 0ZM451.610256-114.871795c-97.148718 0-178.54359 81.394872-178.543589 178.54359s81.394872 178.54359 178.543589 178.54359S630.153846 160.820513 630.153846 63.671795s-81.394872-178.54359-178.54359-178.54359z m0 304.574359c-68.266667 0-126.030769-57.764103-126.030769-126.030769s57.764103-126.030769 126.030769-126.030769c68.266667 0 126.030769 57.764103 126.03077 126.030769s-57.764103 126.030769-126.03077 126.030769zM1123.774359 63.671795m-152.28718 0a152.287179 152.287179 0 1 1 304.574359 0 152.287179 152.287179 0 1 1-304.574359 0ZM1123.774359-114.871795c-97.148718 0-178.54359 81.394872-178.54359 178.54359s81.394872 178.54359 178.54359 178.54359 178.54359-81.394872 178.54359-178.54359-81.394872-178.54359-178.54359-178.54359z m0 304.574359c-68.266667 0-126.030769-57.764103-126.030769-126.030769s57.764103-126.030769 126.030769-126.030769 126.030769 57.764103 126.030769 126.030769-57.764103 126.030769-126.030769 126.030769z"  horiz-adv-x="1417" />

    
    <glyph glyph-name="icon4" unicode="&#59044;" d="M594.895238-35.352381L1048.380952 520.533333c9.752381 14.628571 12.190476 31.695238 4.876191 46.32381L911.847619 837.485714c-7.314286 14.628571-21.942857 21.942857-39.009524 24.380953H219.428571c-17.066667 0-31.695238-9.752381-39.009523-24.380953l-141.409524-268.190476c-7.314286-14.628571-4.87619-31.695238 2.438095-46.323809l487.619048-611.961905c4.87619-9.752381 17.066667-7.314286 21.942857 0l41.447619 51.2 2.438095 2.438095zM877.714286 805.790476l104.838095-204.8h-187.733333L877.714286 805.790476z m-46.32381 9.752381L746.057143 603.428571l-156.038095 212.114286h241.371428z m-121.904762-214.552381H377.904762L543.695238 822.857143l165.790476-221.866667z m-212.114285 214.552381l-158.476191-216.990476-90.209524 216.990476h248.685715zM212.114286 798.47619l78.019047-197.485714H107.27619L212.114286 798.47619z m280.380952-765.561904L75.580952 554.666667h231.619048l202.361905-512-17.066667-9.752381z m48.761905 53.638095L353.52381 554.666667h375.466666l-187.733333-468.114286z m29.257143-48.761905L775.314286 554.666667h243.809524L587.580952 28.038095l-17.066666 9.752381z"  horiz-adv-x="1097" />

    
    <glyph glyph-name="konglongdan3" unicode="&#59047;" d="M786.488889 517.214815c-5.688889 22.755556-28.444444 28.444444-45.511111 22.755555-5.688889-1.422222-10.42963-3.792593-13.748148-7.111111 0 0 0-0.474074-0.474074-0.474074-3.318519-2.844444-5.688889-6.162963-7.111112-9.955555-21.333333-29.866667-49.303704-72.533333-86.755555-130.370371l-79.644445 79.644445c-5.688889 5.688889-17.066667 11.377778-28.444444 11.377777s-22.755556-5.688889-28.444444-11.377777l-102.4-130.844445C342.281481 416.237037 306.725926 474.074074 282.074074 517.214815c44.088889 102.874074 116.148148 187.733333 214.281482 187.733333 68.266667 0 125.155556-39.822222 176.355555-113.777778 11.377778-17.066667 34.133333-22.755556 51.2-11.377777 17.066667 11.377778 22.755556 34.133333 11.377778 51.2-62.577778 96.711111-142.222222 147.911111-233.244445 147.911111-150.281481 0-246.044444-128-297.244444-268.325926l-0.948148-2.370371c-29.392593-82.488889-43.614815-168.77037-43.614815-236.088888 0-187.733333 153.6-335.644444 341.333333-335.644445s341.333333 153.6 335.644445 324.266667c0.474074 80.118519-16.592593 176.82963-50.725926 256.474074z m-290.133333-512c-147.911111 0-267.377778 119.466667-267.377778 267.377778 0 45.985185 7.585185 100.977778 22.281481 156.444444 28.918519-45.511111 65.896296-100.503704 114.251852-167.822222 5.688889-11.377778 17.066667-17.066667 28.444445-17.066667s17.066667 0 28.444444 11.377778l108.088889 136.533333 85.333333-79.644444c5.688889-11.377778 17.066667-11.377778 28.444445-11.377778s22.755556 5.688889 28.444444 17.066667c27.496296 45.511111 49.777778 80.592593 67.792593 107.614815 14.696296-54.992593 23.22963-110.933333 23.229629-158.814815 0-142.222222-119.466667-261.688889-267.377777-261.688889z"  horiz-adv-x="1024" />

    
    <glyph glyph-name="tubiao5" unicode="&#59045;" d="M752.246154-128H224.492308c-43.323077 0-86.646154 15.753846-118.153846 47.261538S59.076923-5.907692 59.076923 37.415385V699.076923C59.076923 789.661538 133.907692 864.492308 224.492308 864.492308H689.230769c19.692308 0 31.507692-15.753846 31.507693-31.507693s-11.815385-35.446154-31.507693-35.446153H224.492308C169.353846 797.538462 126.030769 754.215385 126.030769 699.076923v-661.661538c0-55.138462 43.323077-98.461538 98.461539-98.461539h527.753846c27.569231 0 51.2 11.815385 70.892308 27.569231 19.692308 19.692308 27.569231 43.323077 27.56923 70.892308V647.876923c0 19.692308 15.753846 31.507692 31.507693 31.507692 19.692308 0 31.507692-15.753846 31.507692-31.507692v-610.461538c3.938462-90.584615-70.892308-165.415385-161.476923-165.415385z m-232.369231 626.215385h-196.923077c-19.692308 0-31.507692 15.753846-31.507692 31.507692 0 19.692308 15.753846 31.507692 31.507692 31.507692h196.923077c19.692308 0 31.507692-15.753846 31.507692-31.507692 3.938462-15.753846-11.815385-31.507692-31.507692-31.507692z m133.907692-196.923077H322.953846c-19.692308 0-31.507692 15.753846-31.507692 31.507692 0 19.692308 15.753846 31.507692 31.507692 31.507692h330.830769c19.692308 0 31.507692-15.753846 31.507693-31.507692s-11.815385-31.507692-31.507693-31.507692z m0-196.923077H322.953846c-19.692308 0-31.507692 15.753846-31.507692 31.507692 0 19.692308 15.753846 31.507692 31.507692 31.507692h330.830769c19.692308 0 31.507692-15.753846 31.507693-31.507692s-11.815385-31.507692-31.507693-31.507692z m-7.876923 452.923077c-11.815385 0-23.630769 7.876923-31.507692 19.692307-3.938462 11.815385-3.938462 27.569231 7.876923 35.446154L894.030769 884.184615c7.876923 11.815385 19.692308 11.815385 31.507693 11.815385s19.692308-11.815385 23.630769-23.630769c3.938462-11.815385 0-23.630769-7.876923-31.507693l-271.753846-271.753846c-7.876923-7.876923-15.753846-11.815385-23.63077-11.815384z"  horiz-adv-x="1024" />

    
    <glyph glyph-name="tubiao6" unicode="&#59046;" d="M849.540741 311.940741m-37.925926 0a37.925926 37.925926 0 1 1 75.851852 0 37.925926 37.925926 0 1 1-75.851852 0Z"  horiz-adv-x="1024" />

    
    <glyph glyph-name="tubiao7" unicode="&#59048;" d="M298.666667 597.333333H213.333333c-25.6 0-42.666667-17.066667-42.666666-42.666666s17.066667-42.666667 42.666666-42.666667h85.333334c25.6 0 42.666667 17.066667 42.666666 42.666667s-17.066667 42.666667-42.666666 42.666666zM256 256H170.666667c-25.6 0-42.666667-17.066667-42.666667-42.666667s17.066667-42.666667 42.666667-42.666666h85.333333c25.6 0 42.666667 17.066667 42.666667 42.666666s-17.066667 42.666667-42.666667 42.666667zM256 426.666667H42.666667c-25.6 0-42.666667-17.066667-42.666667-42.666667s17.066667-42.666667 42.666667-42.666667h213.333333c25.6 0 42.666667 17.066667 42.666667 42.666667s-17.066667 42.666667-42.666667 42.666667zM1685.333333 576L1621.333333 631.466667l-98.133333 81.066666c-25.6 21.333333-55.466667 29.866667-85.333333 29.866667h-179.2c0 72.533333-59.733333 132.266667-132.266667 132.266667H490.666667C418.133333 874.666667 358.4 814.933333 358.4 742.4v-550.4c0-72.533333 59.733333-132.266667 132.266667-132.266667h123.733333c12.8-89.6 89.6-162.133333 183.466667-162.133333s170.666667 68.266667 183.466666 162.133333h290.133334c12.8-89.6 89.6-162.133333 183.466666-162.133333 93.866667 0 170.666667 72.533333 183.466667 166.4 55.466667 12.8 98.133333 64 98.133333 128V473.6c-4.266667 38.4-21.333333 76.8-51.2 102.4zM793.6-29.866667c-64 0-115.2 51.2-115.2 115.2s51.2 115.2 115.2 115.2 115.2-51.2 115.2-115.2-51.2-115.2-115.2-115.2z m392.533333 162.133334h-213.333333c-21.333333 81.066667-93.866667 140.8-179.2 140.8s-157.866667-59.733333-179.2-140.8h-128c-34.133333 0-64 29.866667-64 64V746.666667c4.266667 34.133333 29.866667 64 68.266667 64h635.733333c34.133333 0 64-29.866667 64-64v-614.4z m477.866667 341.333333v-42.666667h-115.2c-34.133333 0-59.733333 25.6-59.733333 59.733334S1518.933333 554.666667 1553.066667 554.666667h51.2l38.4-34.133334c12.8-8.533333 21.333333-25.6 21.333333-46.933333z m-213.333333-503.466667c-64 0-115.2 51.2-115.2 115.2s51.2 115.2 115.2 115.2 115.2-51.2 115.2-115.2-51.2-115.2-115.2-115.2z m179.2 166.4c-25.6 76.8-93.866667 132.266667-179.2 132.266667s-157.866667-59.733333-179.2-140.8h-4.266667V678.4h166.4c17.066667 0 29.866667-4.266667 42.666667-12.8l42.666666-34.133333c-59.733333-17.066667-106.666667-68.266667-106.666666-132.266667 0-76.8 64-136.533333 136.533333-136.533333H1664v-162.133334c0-29.866667-12.8-55.466667-34.133333-64z"  horiz-adv-x="1749" />

    
    <glyph glyph-name="tubiao8" unicode="&#59049;" d="M969.386667 158.72V599.04c0 17.066667-10.24 30.72-23.893334 37.546667L532.48 851.626667c-6.826667 3.413333-13.653333 3.413333-20.48 3.413333-6.826667 0-13.653333 0-20.48-3.413333L78.506667 640c-13.653333-6.826667-23.893333-23.893333-23.893334-37.546667v-440.32c0-17.066667 10.24-30.72 23.893334-37.546666L494.933333-83.626667c13.653333-6.826667 27.306667-6.826667 37.546667 0l416.426667 208.213334c13.653333 3.413333 20.48 20.48 20.48 34.133333zM512 800.426667l136.533333-71.68-361.813333-191.146667-146.773333 71.68 372.053333 191.146667z m-27.306667-819.2l-3.413333 3.413333-372.053333 184.32V561.493333L262.826667 486.4v-163.84c0-13.653333 13.653333-27.306667 27.306666-27.306667s27.306667 13.653333 27.306667 27.306667v136.533333l167.253333-81.92v-395.946666z m23.893334 443.733333l-163.84 81.92 6.826666 3.413333 354.986667 191.146667 160.426667-81.92-6.826667-3.413333-351.573333-191.146667z m406.186666-256l-375.466666-187.733333V380.586667h3.413333l375.466667 197.973333v-409.6z"  horiz-adv-x="1024" />

    
    <glyph glyph-name="tubiao9" unicode="&#59050;" d="M999.439114 627.719557c-7.557196 18.892989-22.671587 30.228782-41.564575 41.564576-18.892989 11.335793-37.785978 11.335793-60.457565 11.335793h-41.564575v3.778598c0 7.557196 0 15.114391-3.778598 22.671587L833.180812 782.642066c-7.557196 26.450185-22.671587 49.121771-45.343174 64.236163-22.671587 15.114391-49.121771 18.892989-75.571955 11.335793h-7.557196C387.306273 763.749077 187.04059 703.291513 111.468635 680.619926c-15.114391 0-30.228782-3.778598-45.343174-11.335793-15.114391-11.335793-30.228782-22.671587-41.564575-41.564576-11.335793-18.892989-11.335793-37.785978-11.335794-60.457564v-581.904059c0-22.671587 3.778598-41.564576 11.335794-60.457565 7.557196-18.892989 22.671587-30.228782 41.564575-41.564576 18.892989-11.335793 37.785978-11.335793 60.457565-11.335793h770.833948c22.671587 0 41.564576 3.778598 60.457565 11.335793 18.892989 7.557196 30.228782 22.671587 41.564575 41.564576 11.335793 18.892989 11.335793 37.785978 11.335794 60.457565V567.261993c0 22.671587-3.778598 41.564576-11.335794 60.457564z m-272.05904 166.258303h7.557195c7.557196 0 15.114391-3.778598 18.892989-7.557196 7.557196-3.778598 15.114391-15.114391 15.114391-22.671587l18.892989-75.571955V676.841328H338.184502c102.02214 34.00738 230.494465 71.793358 389.195572 117.136532z m215.380074-838.848709c-3.778598-7.557196-7.557196-11.335793-15.114392-15.114391-7.557196-3.778598-11.335793-3.778598-30.228782-3.778598H126.583026c-15.114391 0-22.671587 0-30.228782 3.778598-7.557196 3.778598-11.335793 7.557196-15.114392 15.114391-3.778598 7.557196-3.778598 15.114391-3.778597 30.228783V567.261993c0 18.892989 0 26.450185 3.778597 30.228782 0 3.778598 3.778598 7.557196 7.557196 7.557195 18.892989 3.778598 83.129151 3.778598 132.250922 3.778598h26.450185l532.782288 7.557196h120.915129c15.114391 0 22.671587 0 30.228782-3.778598 7.557196-3.778598 11.335793-7.557196 15.114391-15.114391v-143.586716h-166.258302c-18.892989 0-30.228782-3.778598-45.343174-11.335793-15.114391-7.557196-26.450185-18.892989-34.00738-34.00738-7.557196-15.114391-11.335793-26.450185-11.335793-45.343174v-139.808118c0-18.892989 3.778598-30.228782 11.335793-45.343173 7.557196-15.114391 18.892989-26.450185 34.00738-34.00738 15.114391-7.557196 30.228782-11.335793 45.343174-11.335794H946.538745v-151.143911c0-11.335793 0-18.892989-3.778597-26.450185z m3.778597 434.538746v-188.92989h-166.258302c-7.557196 0-11.335793 0-15.114391 3.778598-3.778598 0-3.778598 3.778598-7.557196 7.557196V366.99631c0 7.557196 0 11.335793 3.778598 15.114391 0 3.778598 3.778598 3.778598 7.557195 7.557196 3.778598 0 3.778598 3.778598 15.114392 3.778597H946.538745zM848.295203 298.98155m-37.785978 0a37.785978 37.785978 0 1 1 75.571956 0 37.785978 37.785978 0 1 1-75.571956 0Z"  horiz-adv-x="1024" />

    
    <glyph glyph-name="marks" unicode="&#59051;" d="M815.557312 256.505929l-119.399209 101.185771-127.494071-95.114625-131.541502 95.114625-145.70751-101.185771-135.588933 101.185771-147.731225-97.13834-8.094862 12.142292 157.849802 105.233202 135.588933-101.185771 143.683795 101.185771 131.541502-95.114625 127.494071 95.114625 119.399209-101.185771 141.660079 101.185771 157.849803-105.233202-8.094862-12.142292-149.754941 97.13834zM815.557312 317.217391l-119.399209 101.185771-127.494071-95.114624-131.541502 95.114624-145.70751-101.185771-135.588933 101.185771-147.731225-97.13834-8.094862 12.142293 157.849802 105.233201 135.588933-101.185771 143.683795 101.185771 131.541502-95.114624 127.494071 95.114624 119.399209-101.185771 141.660079 101.185771 157.849803-105.233201-8.094862-12.142293-149.754941 97.13834z"  horiz-adv-x="1117" />

    
    <glyph glyph-name="tubiao8-copy" unicode="&#59052;" d="M969.386667 158.72000000000003V599.04c0 17.066667-10.24 30.72-23.893334 37.546667L532.48 851.626667c-6.826667 3.413333-13.653333 3.413333-20.48 3.413333-6.826667 0-13.653333 0-20.48-3.413333L78.506667 640c-13.653333-6.826667-23.893333-23.893333-23.893334-37.546667v-440.32c0-17.066667 10.24-30.72 23.893334-37.546666L494.933333-83.626667c13.653333-6.826667 27.306667-6.826667 37.546667 0l416.426667 208.213334c13.653333 3.413333 20.48 20.48 20.48 34.133333zM512 800.426667l136.533333-71.68-361.813333-191.146667-146.773333 71.68 372.053333 191.146667z m-27.306667-819.2l-3.413333 3.413333-372.053333 184.32V561.493333L262.826667 486.4v-163.84c0-13.653333 13.653333-27.306667 27.306666-27.306667s27.306667 13.653333 27.306667 27.306667v136.533333l167.253333-81.92v-395.946666z m23.893334 443.733333l-163.84 81.92 6.826666 3.413333 354.986667 191.146667 160.426667-81.92-6.826667-3.413333-351.573333-191.146667z m406.186666-256l-375.466666-187.733333V380.58666700000003h3.413333l375.466667 197.973333v-409.6z"  horiz-adv-x="1024" />

    
    <glyph glyph-name="chezi" unicode="&#59053;" d="M1360.082051 578.297436L1181.538462 727.958974c-18.379487 15.753846-52.512821 23.630769-68.266667 23.63077h-186.420513V817.230769c0 44.635897-34.133333 78.769231-78.769231 78.769231H157.538462C70.892308 896 0 825.107692 0 738.461538v-522.502564c0-86.646154 70.892308-157.538462 157.538462-157.538461h105.025641c2.625641-94.523077 81.394872-173.292308 178.543589-173.292308s175.917949 76.14359 178.54359 173.292308H950.482051c2.625641-94.523077 81.394872-173.292308 178.54359-173.292308s175.917949 76.14359 178.54359 173.292308c57.764103 0 105.025641 47.261538 105.025641 105.025641V475.897436c-5.251282 39.384615-21.005128 76.14359-52.512821 102.4z m-5.251282-175.917949h-183.794872c-31.507692 0-55.138462 31.507692-55.138461 70.892308s23.630769 70.892308 55.138461 70.892308h147.035898l7.876923-7.876924c18.379487-15.753846 28.882051-36.758974 28.882051-60.389743v-73.517949zM438.482051-62.358974c-68.266667 0-126.030769 55.138462-126.030769 126.030769s55.138462 126.030769 126.030769 126.030769 126.030769-55.138462 126.03077-126.030769-55.138462-126.030769-126.03077-126.030769z m435.856411 173.292307H609.148718c-21.005128 73.517949-89.271795 128.65641-170.666667 128.656411s-149.661538-55.138462-170.666666-128.656411H157.538462c-57.764103 0-105.025641 47.261538-105.025641 105.025641V738.461538c0 57.764103 47.261538 105.025641 105.025641 105.025641h690.543589c15.753846 0 26.25641-10.502564 26.256411-26.25641v-706.297436z m249.435897-173.292307c-68.266667 0-126.030769 55.138462-126.030769 126.030769 0 7.876923 0 15.753846 2.625641 26.25641 0 2.625641 2.625641 5.251282 2.625641 7.876923 15.753846 52.512821 63.015385 91.897436 120.779487 91.897436 52.512821 0 97.148718-31.507692 115.528205-76.14359 5.251282-15.753846 10.502564-31.507692 10.502564-47.261538v-5.251282c-2.625641-68.266667-57.764103-123.405128-126.030769-123.405128z m178.54359 173.292307h-7.876923c-21.005128 73.517949-89.271795 128.65641-170.666667 128.656411s-149.661538-55.138462-170.666667-128.656411h-26.25641V701.702564h186.420513c5.251282 0 26.25641-5.251282 34.133333-13.128205l110.276923-91.897436h-84.020513c-60.389744 0-107.651282-55.138462-107.651282-123.405128s47.261538-123.405128 107.651282-123.405128h183.794872v-186.420513c-2.625641-28.882051-26.25641-52.512821-55.138461-52.512821z"  horiz-adv-x="1417" />

    
    <glyph glyph-name="hebingxingzhuang" unicode="&#59054;" d="M0 602.253356l3.873289 10.996578a75.417826 75.417826 0 0 0 67.315084 52.089053c28.760281 2.136987 57.565082-14.825346 71.054811-41.537681 13.801373-27.246582 9.928085-59.345904-10.061646-83.253444l-7.301372-8.369865c55.78426-34.458912 111.301396-68.56166 166.506889-102.84249 20.924662-13.089044 41.982887-26.178088 62.907548-38.821927 11.97603-7.078769 21.191786-4.986303 27.647267 6.811646 63.486316 116.777425 126.972632 233.732931 190.993196 351.712411-27.691787 14.246579-45.589052 35.88357-47.191792 68.027413-1.113014 22.527403 6.678084 41.849325 22.527402 57.565082a74.794538 74.794538 0 0 0 110.410985-6.277399c31.698638-39.178091 20.301375-85.078787-29.962336-119.58222 16.383565-30.27398 32.900693-60.726042 49.551382-91.044541l138.102772-254.123348c10.595893-19.589046 17.363018-21.414389 36.373296-10.017125 71.321935 43.941791 142.465787 88.150706 213.832242 132.226058 3.294521 2.092466 6.455481 4.140412 10.328769 6.500002-14.736305 14.914387-24.130143 31.698638-25.198636 52.445217-2.092466 38.732886 24.352745 72.702072 61.438371 79.113033a74.883579 74.883579 0 0 0 85.746595-53.113026c0.80137-2.938357 2.047946-6.010275 3.16096-8.904112v-26.133568c-12.109592-39.178091-37.041105-62.017138-79.869882-62.328782-1.513699-4.452056-3.116439-8.904112-4.407535-13.311647l-125.14729-433.630238c-5.342467-18.876717-12.020551-23.773978-30.852747-23.773978H241.301426c-20.256854 0-26.445212 4.7637-31.965761 23.773978-34.013707 117.22263-67.626728 234.845945-101.595914 352.024055-9.126714 31.698638-18.476032 63.397275-27.691787 95.229474C48.037682 513.701965 23.95206 526.479366 8.904112 554.304715c-3.561645 6.811645-5.921234 14.469181-8.815071 21.681511C0 585.0239 0 593.660888 0 602.253356zM601.20562-14.445419h341.917888c30.496582 0 54.849328-21.414389 58.18837-50.219189 3.383562-29.071925-15.804798-55.517136-45.277408-62.061659a50.486313 50.486313 0 0 0-12.910962-1.246575H258.976088c-26.000006 0-47.948641 15.448634-55.517136 38.821926-7.835618 23.373293-0.578767 49.818505 20.301374 63.174673 10.729455 6.811645 25.020554 11.530825 37.619872 11.530824 113.393862 0.534247 226.698683 0 339.869943 0z"  horiz-adv-x="1202" />

    
    <glyph glyph-name="jinggao1" unicode="&#59055;" d="M498.65193 822.523839c-235.961421-2.226051-425.175769-195.892501-425.175769-431.853922 2.226051-235.961421 193.66645-425.175769 429.627871-425.175769 235.961421 2.226051 425.175769 193.66645 425.175769 429.627871 0 238.187473-193.66645 427.40182-429.627871 427.40182z m0 73.459688C774.682272 898.209578 1001.739489 675.604464 1003.96554 397.34807S781.360425-105.739489 505.330083-107.96554C227.07369-107.96554 2.242524 114.639575 0.016473 390.669917S220.395537 893.757476 498.65193 895.983527z m2.226051-774.665799c-22.260511 0-42.294972 20.03446-42.294972 42.294972 0 22.260511 20.03446 42.294972 42.294972 42.294972s42.294972-20.03446 42.294972-42.294972c0-22.260511-20.03446-42.294972-42.294972-42.294972z m31.164716 220.379064v-44.521023c0-17.808409-15.582358-33.390767-33.390767-33.390767s-33.390767 15.582358-33.390767 33.390767l2.226051 182.536194v182.536194c0 17.808409 15.582358 33.390767 33.390767 33.390767s33.390767-15.582358 33.390767-33.390767v-320.551365z"  horiz-adv-x="1024" />

    
    <glyph glyph-name="fahuo" unicode="&#59056;" d="M56.07619 235.27619h182.857143c9.752381 0 19.504762 4.87619 24.380953 9.752381 7.314286 7.314286 9.752381 17.066667 9.752381 24.380953 0 9.752381-2.438095 19.504762-9.752381 24.380952-7.314286 7.314286-17.066667 12.190476-26.819048 12.190476H56.07619c-9.752381 0-19.504762-4.87619-26.819047-9.752381-7.314286-7.314286-9.752381-17.066667-9.752381-24.380952 0-21.942857 14.628571-36.571429 36.571428-36.571429zM56.07619 364.495238h321.828572c9.752381 0 19.504762 4.87619 24.380952 9.752381 7.314286 7.314286 9.752381 17.066667 9.752381 24.380952 0 9.752381-2.438095 17.066667-9.752381 24.380953-7.314286 7.314286-17.066667 12.190476-26.819047 12.190476H56.07619c-9.752381 0-19.504762-4.87619-24.380952-9.752381-7.314286-7.314286-9.752381-17.066667-9.752381-24.380952-2.438095-19.504762 12.190476-36.571429 34.133333-36.571429zM967.92381 644.87619l-82.895239 158.476191c-21.942857 41.447619-75.580952 73.142857-121.904761 73.142857H256c-46.32381 0-99.961905-31.695238-121.904762-73.142857l-82.895238-156.038095C31.695238 613.180952 19.504762 554.666667 19.504762 515.657143v-24.380953c0-9.752381 4.87619-19.504762 9.752381-26.819047 7.314286-7.314286 17.066667-9.752381 24.380952-9.752381 9.752381 0 19.504762 4.87619 24.380953 9.752381 7.314286 7.314286 9.752381 17.066667 9.752381 24.380952v24.380953 2.438095H926.47619V-6.095238c0-7.314286-2.438095-12.190476-7.314285-17.066667-4.87619-4.87619-9.752381-7.314286-17.066667-7.314285H114.590476c-12.190476 0-24.380952 9.752381-24.380952 24.380952v36.571428c0 9.752381-4.87619 19.504762-9.752381 26.819048-7.314286 4.87619-14.628571 9.752381-24.380953 9.752381s-19.504762-4.87619-24.380952-9.752381c-7.314286-7.314286-9.752381-17.066667-9.752381-24.380952v-36.571429c0-26.819048 9.752381-51.2 29.257143-68.266667 14.628571-21.942857 39.009524-31.695238 63.390476-31.695238H902.095238c53.638095 0 97.52381 43.885714 97.52381 97.52381V513.219048c0 41.447619-14.628571 97.52381-31.695238 131.657142z m-56.076191-53.638095h-804.571429c2.438095 9.752381 7.314286 17.066667 9.752381 21.942857l82.895239 156.038096c9.752381 17.066667 36.571429 34.133333 56.07619 34.133333h509.561905c19.504762 0 46.32381-17.066667 56.07619-34.133333l82.895238-160.914286c2.438095-2.438095 4.87619-9.752381 7.314286-17.066667zM485.180952 296.228571c-7.314286-7.314286-9.752381-17.066667-9.752381-24.380952 0-19.504762 17.066667-36.571429 36.571429-36.571429h163.352381L633.904762 193.828571c-7.314286-7.314286-9.752381-17.066667-9.752381-24.380952s4.87619-19.504762 9.752381-24.380952c7.314286-7.314286 17.066667-9.752381 26.819048-9.752381 9.752381 0 19.504762 4.87619 24.380952 9.752381l104.838095 104.838095c2.438095 2.438095 2.438095 4.87619 4.876191 4.87619l2.438095 2.438096 2.438095 2.438095s0 2.438095 2.438095 2.438095v4.876191 7.314285 7.314286 2.438095 2.438095l-2.438095 9.752381-2.438095 2.438096c0 2.438095-2.438095 2.438095-2.438095 4.87619l-112.152381 97.52381c-14.628571 14.628571-36.571429 14.628571-51.2 0-7.314286-7.314286-9.752381-17.066667-9.752381-26.819048 0-9.752381 4.87619-19.504762 9.752381-24.380952l41.447619-41.447619h-163.352381c-9.752381 0-17.066667-4.87619-24.380953-12.190477zM29.257143 115.809524c7.314286-7.314286 17.066667-9.752381 24.380952-9.752381h90.209524c9.752381 0 19.504762 4.87619 26.819048 9.752381 7.314286 7.314286 9.752381 17.066667 9.752381 24.380952 0 9.752381-2.438095 17.066667-9.752381 24.380953-7.314286 7.314286-17.066667 12.190476-26.819048 12.190476H53.638095c-19.504762 0-36.571429-17.066667-36.571428-36.571429 0-7.314286 4.87619-17.066667 12.190476-24.380952z"  horiz-adv-x="1024" />

    
    <glyph glyph-name="huiyuan" unicode="&#59057;" d="M0 602.156522l4.452174 8.904348c8.904348 31.165217 35.617391 48.973913 66.782609 53.426087 26.713043 0 57.878261-13.356522 71.234782-40.069566 13.356522-26.713043 8.904348-57.878261-8.904348-84.591304-4.452174 0-4.452174-4.452174-8.904347-8.904348 57.878261-35.617391 111.304348-66.782609 164.730434-102.4l66.782609-40.069565c13.356522-8.904348 22.26087-4.452174 26.713044 8.904348C445.217391 513.113043 507.547826 628.869565 574.330435 749.078261c-26.713043 13.356522-44.521739 35.617391-48.973913 66.782609 0 22.26087 8.904348 40.069565 22.260869 57.87826 31.165217 31.165217 84.591304 26.713043 111.304348-4.452173 31.165217-40.069565 22.26087-84.591304-31.165217-120.208696 17.808696-31.165217 31.165217-62.330435 48.973913-89.043478 44.521739-84.591304 93.495652-169.182609 138.017391-253.773913 8.904348-17.808696 17.808696-22.26087 35.617391-8.904348l213.704348 133.565217c4.452174 0 4.452174 4.452174 8.904348 4.452174-13.356522 13.356522-22.26087 31.165217-26.713043 53.426087 0 40.069565 22.26087 71.234783 62.330434 80.13913 40.069565 8.904348 75.686957-13.356522 84.591305-53.426087 0-4.452174 0-4.452174 4.452174-8.904347v-26.713044c-13.356522-40.069565-35.617391-62.330435-80.139131-62.330435 0-4.452174-4.452174-8.904348-4.452174-13.356521-40.069565-142.469565-84.591304-289.391304-124.660869-431.86087-4.452174-17.808696-13.356522-22.26087-31.165218-22.260869H240.417391c-22.26087 0-26.713043 4.452174-31.165217 22.260869-35.617391 115.756522-66.782609 235.965217-102.4 351.721739-8.904348 26.713043-17.808696 57.878261-26.713044 89.043478-31.165217 0-57.878261 13.356522-71.234782 40.069566-4.452174 8.904348-4.452174 13.356522-8.904348 22.260869v26.713044z m601.043478-618.852174h342.817392c31.165217 0 53.426087-22.26087 57.87826-48.973913 4.452174-31.165217-17.808696-53.426087-44.521739-62.330435H258.226087c-26.713043 0-48.973913 13.356522-53.426087 40.069565-8.904348 22.26087 0 48.973913 22.26087 62.330435 8.904348 8.904348 26.713043 13.356522 35.617391 13.356522 111.304348 0 227.06087-4.452174 338.365217-4.452174z"  horiz-adv-x="1202" />

    
    <glyph glyph-name="kefu" unicode="&#59058;" d="M990.967742 483.096774C951.329032 720.929032 759.741935 896 528.516129 896S105.703226 714.322581 66.064516 483.096774c-39.63871-36.335484-66.064516-99.096774-66.064516-161.858064 0-82.580645 46.245161-181.677419 118.916129-181.67742 66.064516 0 66.064516 75.974194 66.064516 181.67742 0 99.096774 0 175.070968-46.245161 181.677419 39.63871 188.283871 198.193548 330.322581 389.780645 330.322581s350.141935-138.735484 389.780645-323.716129c-46.245161-13.212903-46.245161-82.580645-46.245161-181.67742 0-69.367742 0-118.916129 13.212903-155.251613-59.458065-99.096774-145.341935-168.464516-251.045161-194.890322-19.819355 26.425806-59.458065 49.548387-105.703226 49.548387-66.064516 0-118.916129-36.335484-118.916129-75.974194 0-42.941935 52.851613-75.974194 118.916129-75.974193s118.916129 36.335484 118.916129 75.974193c105.703226 26.425806 198.193548 105.703226 257.651613 204.8 6.606452-6.606452 19.819355-6.606452 33.032258-6.606451 72.670968 0 118.916129 99.096774 118.916129 181.677419 0 52.851613-26.425806 115.612903-66.064516 151.948387z"  horiz-adv-x="1057" />

    
    <glyph glyph-name="pingjia" unicode="&#59059;" d="M917.048889 358.968889c15.928889 43.235556 15.928889 88.746667 15.928889 131.982222v52.337778c0 40.96 2.275556 91.022222 2.275555 138.808889 0 15.928889-6.826667 31.857778-18.204444 45.511111-11.377778 11.377778-27.306667 18.204444-43.235556 18.204444h-2.275555c-52.337778-2.275556-97.848889-15.928889-138.808889-34.133333-9.102222 27.306667-22.755556 50.062222-40.96 75.093333-15.928889 20.48-36.408889 40.96-56.888889 56.888889-29.582222 22.755556-59.164444 34.133333-86.471111 34.133334-40.96 0-84.195556-27.306667-136.533333-84.195556-20.48-22.755556-36.408889-50.062222-47.786667-77.368889-45.511111 20.48-81.92 29.582222-127.431111 29.582222-15.928889 0-31.857778-6.826667-45.511111-18.204444-9.102222-11.377778-18.204444-27.306667-18.204445-45.511111 0-25.031111 0-52.337778-2.275555-77.368889-2.275556-86.471111-6.826667-177.493333 20.48-257.137778 22.755556-65.991111 65.991111-122.88 127.431111-166.115555 54.613333-38.684444 122.88-63.715556 193.422222-72.817778h6.826667v-188.871111c0-18.204444 13.653333-31.857778 31.857777-31.857778s31.857778 13.653333 31.857778 31.857778v186.595555c154.737778 11.377778 286.72 111.502222 334.506667 252.586667z m-45.511111 320.853333c0-45.511111 0-91.022222-2.275556-134.257778v-54.613333c0-38.684444 0-77.368889-11.377778-111.502222-40.96-118.328889-152.462222-200.248889-279.893333-207.075556l-56.888889 2.275556c-125.155556 13.653333-229.831111 91.022222-263.964444 193.422222-22.755556 70.542222-20.48 152.462222-18.204445 234.382222v2.275556c0 27.306667 2.275556 50.062222 2.275556 75.093333 47.786667-2.275556 84.195556-15.928889 129.706667-38.684444l36.408888-18.204445 11.377778 38.684445c9.102222 34.133333 25.031111 63.715556 47.786667 88.746666 50.062222 56.888889 77.368889 63.715556 86.471111 63.715556 25.031111 0 65.991111-34.133333 91.022222-65.991111 20.48-27.306667 34.133333-54.613333 40.96-86.471111l9.102222-38.684445 36.408889 15.928889c45.511111 22.755556 88.746667 40.96 141.084445 40.96zM380.017778 90.453333c-36.408889 38.684444-72.817778 65.991111-111.502222 81.92-40.96 15.928889-91.022222 18.204444-136.533334 6.826667-54.613333-13.653333-93.297778-45.511111-111.502222-86.471111-6.826667-15.928889 0-36.408889 18.204444-43.235556 15.928889-6.826667 36.408889 0 43.235556 18.204445 13.653333 31.857778 47.786667 45.511111 68.266667 50.062222 31.857778 9.102222 70.542222 6.826667 97.848889-4.551111 68.266667-27.306667 122.88-102.4 157.013333-161.564445 6.826667-9.102222 15.928889-15.928889 27.306667-15.928888 4.551111 0 11.377778 2.275556 15.928888 4.551111 6.826667 4.551111 13.653333 11.377778 15.928889 20.48 2.275556 9.102222 2.275556 18.204444-2.275555 25.031111-27.306667 38.684444-54.613333 75.093333-81.92 104.675555zM1085.44 90.453333c-18.204444 43.235556-56.888889 75.093333-111.502222 86.471111-45.511111 11.377778-95.573333 9.102222-136.533334-6.826666-38.684444-15.928889-77.368889-43.235556-111.502222-81.92-27.306667-29.582222-52.337778-65.991111-77.368889-109.226667-4.551111-6.826667-4.551111-15.928889-2.275555-25.031111 2.275556-9.102222 6.826667-15.928889 15.928889-20.48 4.551111-2.275556 11.377778-4.551111 15.928889-4.551111 11.377778 0 22.755556 6.826667 27.306666 15.928889 34.133333 59.164444 88.746667 134.257778 157.013334 161.564444 27.306667 11.377778 63.715556 11.377778 97.848888 4.551111 20.48-4.551111 54.613333-18.204444 68.266667-50.062222 6.826667-15.928889 25.031111-25.031111 43.235556-18.204444 13.653333 13.653333 20.48 31.857778 13.653333 47.786666z"  horiz-adv-x="1092" />

    
    <glyph glyph-name="wancheng1" unicode="&#59060;" d="M498.65193 822.523839c-235.961421-2.226051-425.175769-195.892501-425.175769-431.853922 2.226051-235.961421 193.66645-425.175769 429.627871-425.175769 235.961421 2.226051 425.175769 193.66645 425.175769 429.627871 0 238.187473-193.66645 427.40182-429.627871 427.40182z m0 73.459688C774.682272 898.209578 1001.739489 675.604464 1003.96554 397.34807S781.360425-105.739489 505.330083-107.96554C227.07369-107.96554 2.242524 114.639575 0.016473 390.669917S220.395537 893.757476 498.65193 895.983527z m-191.440399-529.800173c-13.356307 13.356307-13.356307 33.390767 0 46.747075 13.356307 13.356307 33.390767 13.356307 46.747074 0l129.110967-124.658865 247.091677 231.50932c13.356307 13.356307 33.390767 13.356307 46.747074 0 13.356307-13.356307 13.356307-33.390767 0-46.747075L507.556134 219.263979c-13.356307-13.356307-33.390767-13.356307-46.747074 0-93.494148 91.268097-144.693324 140.241222-153.597529 146.919375z"  horiz-adv-x="1024" />

    
    <glyph glyph-name="shouhuo" unicode="&#59061;" d="M329.142857 186.514286H238.933333c-19.504762 0-34.133333-14.628571-34.133333-34.133334-2.438095-19.504762 14.628571-36.571429 34.133333-36.571428h90.209524c19.504762 0 34.133333 14.628571 34.133333 34.133333 0 21.942857-14.628571 36.571429-34.133333 36.571429zM421.790476 315.733333H238.933333c-19.504762 0-34.133333-14.628571-34.133333-34.133333 0-19.504762 14.628571-34.133333 34.133333-34.133333h182.857143c19.504762 0 34.133333 14.628571 34.133334 34.133333 0 19.504762-14.628571 34.133333-34.133334 34.133333zM970.361905 642.438095l-82.895238 160.914286c-21.942857 41.447619-73.142857 73.142857-119.466667 73.142857h-512c-46.32381 0-99.961905-31.695238-119.466667-73.142857l-82.895238-156.038095C36.571429 613.180952 21.942857 554.666667 21.942857 515.657143v-526.628572c0-53.638095 43.885714-95.085714 95.085714-95.085714h789.942858c53.638095 0 95.085714 43.885714 95.085714 95.085714V510.780952c2.438095 39.009524-12.190476 97.52381-31.695238 131.657143zM104.838095 588.8c2.438095 9.752381 7.314286 17.066667 9.752381 24.380952l82.895238 156.038096c9.752381 17.066667 36.571429 34.133333 58.514286 34.133333h512c19.504762 0 48.761905-17.066667 58.514286-34.133333l82.895238-160.914286c2.438095-4.87619 4.87619-12.190476 7.314286-19.504762H104.838095z m828.952381-599.771429c0-14.628571-12.190476-24.380952-24.380952-24.380952H117.028571c-14.628571 0-24.380952 12.190476-24.380952 24.380952V515.657143v2.438095h841.142857v-529.066667zM763.12381 359.619048l-148.72381-160.914286-58.514286 58.514286c-14.628571 14.628571-36.571429 14.628571-48.761904 0-14.628571-14.628571-14.628571-36.571429 0-48.761905l82.895238-82.895238c7.314286-7.314286 14.628571-9.752381 24.380952-9.752381 4.87619 0 9.752381 0 14.628571 2.438095 4.87619 2.438095 9.752381 4.87619 14.628572 9.752381l173.104762 185.295238c12.190476 14.628571 12.190476 36.571429-2.438095 48.761905s-36.571429 12.190476-51.2-2.438095z"  horiz-adv-x="1024" />

    
    <glyph glyph-name="dengdai" unicode="&#59062;" d="M498.659951 820.313043c-235.965217 0-425.182609-193.669565-422.956521-429.634782 2.226087-235.965217 193.669565-425.182609 429.634782-425.182609 235.965217 2.226087 425.182609 193.669565 425.182609 429.634783S734.625169 822.53913 498.659951 820.313043z m0 75.686957C776.920821 896 1001.755603 673.391304 1003.98169 397.356522S781.372995-105.73913 505.338212-107.965217C227.077343-110.191304 2.24256 112.417391 0.016473 390.678261S222.625169 893.773913 498.659951 896z m-26.713043-193.669565c17.808696 0 33.391304-15.582609 33.391304-33.391305l2.226087-289.391304 289.391304 2.226087c17.808696 0 33.391304-15.582609 33.391305-33.391304s-15.582609-33.391304-33.391305-33.391305L474.172995 317.217391c-17.808696 0-33.391304 15.582609-33.391305 33.391305l-2.226087 320.556521c2.226087 17.808696 15.582609 31.165217 33.391305 31.165218z"  horiz-adv-x="1024" />

    
    <glyph glyph-name="zhiding" unicode="&#59063;" d="M627.2 742.4c-8.533333 8.533333-17.066667 8.533333-21.333333 12.8-4.266667 4.266667-12.8 4.266667-17.066667 4.266667-4.266667 0-12.8 0-17.066667-4.266667-8.533333 0-17.066667-4.266667-21.333333-12.8L115.2 349.866667c-21.333333-17.066667-21.333333-46.933333 0-64 21.333333-17.066667 51.2-17.066667 68.266667 0l358.4 328.533333V-85.333333c0-21.333333 21.333333-38.4 42.666666-38.4 25.6 0 42.666667 17.066667 42.666667 38.4V614.4l358.4-328.533333c21.333333-17.066667 51.2-17.066667 68.266667 0 21.333333 17.066667 21.333333 46.933333 0 64l-426.666667 392.533333zM1130.666667 896H46.933333C21.333333 896 0 874.666667 0 849.066667s21.333333-46.933333 46.933333-46.933334h1088c25.6 0 46.933333 21.333333 46.933334 46.933334S1156.266667 896 1130.666667 896z"  horiz-adv-x="1194" />

    
    <glyph glyph-name="pic" unicode="&#59065;" d="M925.090909 500.363636a75.659636 75.659636 0 0 0-75.636364 75.636364c0 41.762909 33.873455 75.636364 75.636364 75.636364s75.636364-33.873455 75.636364-75.636364-33.873455-75.636364-75.636364-75.636364z m290.909091 395.636364c35.374545 0 64-28.625455 64-64v-896c0-35.374545-28.625455-64-64-64h-1152C28.625455-128 0-99.374545 0-64v896C0 867.374545 28.625455 896 64 896h1152z m-32-732.741818V800H96v-628.375273l321.128727 222.370909c28.869818 19.874909 68.119273 18.501818 95.499637-3.374545L776.378182 179.374545l79.744 99.630546a79.441455 79.441455 0 0 0 106.88 16.616727L1184 163.258182z"  horiz-adv-x="1280" />

    
    <glyph glyph-name="touxiang" unicode="&#59066;" d="M613.9904 312.700343c-3.159771 32.621714-2.106514 56.846629-2.106514 87.391086 14.7456 8.411429 67.393829 58.953143 71.606857 101.083428 11.5712 1.038629 30.529829 12.624457 35.796114 58.953143 3.159771 24.210286-8.426057 38.955886-15.798857 43.154286 18.958629 57.929143 27.384686 239.030857-105.281829 256.9216C584.513829 883.360914 549.770971 896 504.495543 896c-181.101714-3.159771-234.788571-138.971429-194.794057-293.756343-7.358171-4.213029-18.944-17.905371-15.798857-43.168914 5.266286-46.328686 24.224914-57.914514 35.810742-58.953143 4.213029-43.183543 56.861257-93.725257 71.592229-101.083429 0-30.544457 1.053257-53.701486-2.106514-87.391085C363.402971 214.776686 128.6144 265.3184 117.028571 53.686857 289.938286-67.437714 419.796114-128 506.587429-128c86.352457 0 216.210286 60.562286 389.588114 181.686857-6.319543 214.791314-246.3744 161.089829-282.185143 259.013486z"  horiz-adv-x="1024" />

    
    <glyph glyph-name="zaixiankefu" unicode="&#59067;" d="M885.76 512C865.28 706.56 706.56 855.04 512 855.04s-358.4-153.6-378.88-348.16C87.04 491.52 51.2 450.56 51.2 394.24v-107.52c0-66.56 51.2-117.76 117.76-117.76 66.56 0 117.76 51.2 117.76 117.76V394.24c0 51.2-30.72 92.16-76.8 112.64 15.36 153.6 143.36 276.48 302.08 276.48 153.6 0 281.6-117.76 302.08-266.24-51.2-15.36-87.04-61.44-87.04-112.64v-107.52c0-51.2 30.72-92.16 71.68-107.52-10.24-97.28-51.2-148.48-128-163.84-15.36 30.72-46.08 51.2-81.92 51.2-46.08 0-87.04-40.96-87.04-87.04s40.96-87.04 87.04-87.04c40.96 0 71.68 25.6 81.92 61.44 112.64 20.48 174.08 97.28 189.44 220.16 56.32 10.24 102.4 56.32 102.4 117.76v102.4c-5.12 46.08-30.72 87.04-76.8 107.52z m-296.96-563.2c-20.48 0-35.84 15.36-35.84 35.84 0 20.48 15.36 35.84 35.84 35.84 20.48 0 35.84-15.36 35.84-35.84 0-20.48-15.36-35.84-35.84-35.84z m-363.52 337.92c0-30.72-25.6-56.32-56.32-56.32-30.72 0-56.32 25.6-56.32 56.32V394.24c0 30.72 25.6 56.32 56.32 56.32 30.72 0 56.32-25.6 56.32-56.32v-107.52z m670.72 10.24c0-30.72-25.6-56.32-56.32-56.32s-56.32 25.6-56.32 56.32V404.48c0 20.48 15.36 40.96 35.84 51.2h35.84c20.48-10.24 35.84-25.6 35.84-51.2v-107.52z"  horiz-adv-x="1024" />

    
    <glyph glyph-name="online_tel" unicode="&#59068;" d="M534.272 896C238.189714 896 0 706.779429 0 448.548571c0-158.061714 89.051429-276.041143 222.610286-360.594285 13.348571-8.923429 22.272-22.308571 22.272-37.851429v-155.830857a22.308571 22.308571 0 0 1 22.235428-22.272c4.461714 0 11.154286 2.194286 15.579429 6.692571l122.441143 115.748572c8.923429 8.886857 20.041143 11.117714 31.158857 11.117714h6.692571c28.928-4.461714 60.123429-6.656 91.282286-6.656 296.045714 0 534.235429 189.184 534.235429 447.414857C1068.507429 706.779429 830.317714 896 534.308571 896zM311.661714 381.805714c-24.502857 0-44.544 20.004571-44.544 44.507429s20.041143 44.507429 44.544 44.507428c24.502857 0 44.507429-20.041143 44.507429-44.507428 0-24.502857-20.041143-44.544-44.507429-44.544z m222.610286 0c-24.502857 0-44.544 20.004571-44.544 44.507429s20.041143 44.507429 44.544 44.507428c24.502857 0 44.507429-20.041143 44.507429-44.507428 0-24.502857-20.041143-44.544-44.507429-44.544z m222.610286 0c-24.502857 0-44.544 20.004571-44.544 44.507429s20.041143 44.507429 44.544 44.507428c24.502857 0 44.507429-20.041143 44.507428-44.507428 0-24.502857-20.041143-44.544-44.507428-44.544z"  horiz-adv-x="1097" />

    
    <glyph glyph-name="trash" unicode="&#58891;" d="M987.409067 713.1136a36.522667 36.522667 0 1 0 0-73.1136H36.590933a36.522667 36.522667 0 1 0 0 73.1136h182.818134V786.295467A109.909333 109.909333 0 0 0 329.1136 896h366.592c60.074667 0 108.885333-49.220267 108.885333-109.704533V713.045333h182.818134zM292.590933 786.295467V713.045333h438.818134V786.295467c0 20.48-15.701333 36.590933-35.703467 36.590933H329.045333a36.6592 36.6592 0 0 1-36.522666-36.590933z m365.704534-658.295467a36.522667 36.522667 0 1 0-73.181867 0V530.295467a36.522667 36.522667 0 1 0 73.181867 0v-402.295467z m-219.409067 0a36.522667 36.522667 0 1 0-73.181867 0V530.295467a36.522667 36.522667 0 1 0 73.181867 0v-402.295467z m402.432 437.930667c20.206933 0 36.522667-16.384 36.522667-36.590934v-547.6352A109.909333 109.909333 0 0 0 768.136533-128h-512a109.909333 109.909333 0 0 0-109.7728 109.704533V530.8416a36.590933 36.590933 0 0 0 73.1136 0v-549.137067c0-20.206933 16.384-36.590933 36.590934-36.590933h512.068266c20.206933 0 36.590933 16.384 36.590934 36.590933V529.408c0 20.206933 16.384 36.590933 36.590933 36.590933z"  horiz-adv-x="1024" />

    


  </font>
</defs>
</svg>
